<svg width="470" height="401" viewBox="0 0 470 401" fill="none" xmlns="http://www.w3.org/2000/svg">
    <path d="M230.666 77.5293H153.564V185.813H230.666V77.5293Z" stroke="#263238" stroke-width="1.25474" stroke-miterlimit="10"/>
    <path d="M221.187 90.8457H163.044V172.507H221.187V90.8457Z" stroke="#263238" stroke-width="1.25474" stroke-miterlimit="10"/>
    <path d="M372.007 133.447H318.284V208.891H372.007V133.447Z" stroke="#263238" stroke-width="1.25474" stroke-miterlimit="10"/>
    <path d="M365.408 142.723H324.894V199.618H365.408V142.723Z" stroke="#263238" stroke-width="1.25474" stroke-miterlimit="10"/>
    <path d="M440.94 276.313C440.94 276.313 441.987 272.536 441.987 272.292C442.385 269.427 441.485 263.654 438.604 262.243C438.12 262.023 437.595 261.909 437.064 261.908C436.534 261.907 436.009 262.02 435.524 262.238C435.038 262.456 434.604 262.775 434.249 263.175C433.893 263.574 433.625 264.045 433.461 264.556C432.686 266.679 433.66 269.342 434.823 271.156C436.185 273.278 440.93 276.313 440.94 276.313Z" fill="#263238"/>
    <path d="M384.169 275.06C386.463 276.121 392.077 275.951 392.088 275.951C392.098 275.951 390.873 272.227 390.768 272.004C389.542 269.394 385.646 265.086 382.472 265.521C381.949 265.607 381.449 265.804 381.006 266.099C380.563 266.394 380.186 266.781 379.901 267.233C379.615 267.686 379.427 268.195 379.348 268.726C379.27 269.257 379.303 269.799 379.445 270.317C379.969 272.545 382.221 274.2 384.169 275.06Z" fill="#263238"/>
    <path d="M392.884 263.537H392.936C392.81 264.45 392.685 265.426 392.569 266.508C392.381 268.493 392.182 270.753 392.119 273.193C392.029 275.844 392.092 278.498 392.308 281.141C392.536 284.1 393.024 287.033 393.764 289.905V290.001C393.261 289.205 391.773 287.008 391.669 286.817C389.794 284.632 384.923 281.512 381.98 282.775C381.496 282.998 381.063 283.323 380.711 283.727C380.359 284.132 380.096 284.607 379.937 285.122C379.779 285.637 379.73 286.18 379.793 286.715C379.856 287.25 380.03 287.766 380.304 288.229C381.351 290.224 383.991 291.221 386.096 291.529C388.474 291.879 393.491 290.468 393.889 290.287C394.709 293.184 395.724 296.02 396.927 298.776C397.608 300.389 398.351 301.959 399.126 303.593C398.666 302.914 398.247 302.32 398.184 302.235C396.319 300.049 391.438 296.93 388.495 298.203C388.004 298.427 387.566 298.754 387.21 299.163C386.854 299.572 386.588 300.053 386.431 300.574C386.273 301.096 386.227 301.645 386.296 302.186C386.365 302.727 386.547 303.246 386.83 303.71C387.877 305.715 390.516 306.702 392.632 307.021C394.748 307.339 399.064 306.161 400.195 305.843C400.499 306.448 400.792 307.063 401.096 307.678C402.541 310.596 404.007 313.514 405.348 316.411C405.819 317.472 406.249 318.459 406.689 319.488C406.28 318.884 405.935 318.427 405.872 318.311C404.007 316.125 399.126 313.005 396.183 314.278C395.7 314.502 395.269 314.826 394.918 315.23C394.567 315.634 394.304 316.108 394.146 316.621C393.988 317.135 393.939 317.676 394.001 318.211C394.063 318.745 394.236 319.26 394.507 319.722C395.555 321.727 398.194 322.714 400.31 323.022C402.426 323.33 406.322 322.29 407.642 321.908C408.051 322.969 408.47 324.03 408.826 325.091C409.046 325.812 409.318 326.492 409.496 327.213C409.674 327.935 409.894 328.656 410.093 329.335C410.418 330.725 410.774 332.147 411.057 333.505C411.266 334.45 411.444 335.352 411.622 336.264C411.161 335.203 410.219 333.251 410.124 333.081C408.606 330.64 404.248 326.81 401.148 327.606C400.638 327.754 400.164 328.009 399.757 328.355C399.351 328.7 399.02 329.128 398.787 329.611C398.554 330.095 398.424 330.622 398.405 331.159C398.386 331.696 398.478 332.232 398.676 332.731C399.451 334.853 401.871 336.264 403.913 336.89C406.155 337.591 411.13 336.954 411.748 336.89C412.052 338.397 412.324 339.861 412.565 341.251C413.319 345.612 413.811 349.337 414.147 352.096H416.294C415.906 349.284 415.32 345.443 414.429 340.901C414.126 339.373 413.78 337.718 413.382 336.073C414.877 335.453 416.336 334.744 417.75 333.951C419.384 335.744 423.584 337.845 424.118 338.11C423.553 339.532 422.987 340.912 422.432 342.196C420.704 346.228 419.101 349.57 417.875 352.053H420.347C421.458 349.634 422.83 346.557 424.286 342.949C424.872 341.506 425.469 339.957 426.066 338.355C426.674 338.482 431.586 339.49 433.88 338.97C435.975 338.492 438.479 337.304 439.411 335.214C439.648 334.731 439.781 334.202 439.803 333.663C439.824 333.124 439.733 332.587 439.536 332.086C439.338 331.585 439.038 331.132 438.655 330.757C438.273 330.382 437.816 330.092 437.316 329.908C434.289 328.847 429.659 332.37 427.962 334.694C427.868 334.832 426.915 336.445 426.381 337.474C426.622 336.816 426.862 336.179 427.103 335.5C427.585 334.174 428.025 332.826 428.507 331.373C428.716 330.672 428.936 329.951 429.146 329.25C429.355 328.55 429.523 327.765 429.711 327.011C430.13 325.261 430.455 323.457 430.759 321.642C431.911 322.067 435.996 323.521 438.175 323.372C440.353 323.223 442.972 322.428 444.197 320.507C444.502 320.067 444.711 319.567 444.812 319.04C444.913 318.513 444.904 317.97 444.784 317.446C444.665 316.923 444.438 316.431 444.118 316.002C443.799 315.573 443.394 315.217 442.93 314.958C440.092 313.472 434.991 316.21 432.969 318.247C432.843 318.374 431.555 319.998 430.874 320.91C431.042 319.849 431.22 318.724 431.356 317.61C431.743 314.427 432.047 311.138 432.403 307.88C432.498 306.883 432.602 305.896 432.707 304.898C433.116 305.058 437.944 306.893 440.374 306.723C442.469 306.575 445.172 305.779 446.408 303.869C446.713 303.428 446.923 302.927 447.025 302.398C447.126 301.869 447.116 301.324 446.995 300.8C446.875 300.275 446.646 299.782 446.325 299.353C446.003 298.924 445.596 298.568 445.13 298.309C442.291 296.824 437.201 299.561 435.169 301.598C435.022 301.758 433.168 304.103 432.728 304.718C432.959 302.532 433.199 300.357 433.535 298.214C433.962 295.325 434.577 292.468 435.378 289.661C435.567 289.736 440.615 291.677 443.087 291.497C445.182 291.348 447.884 290.563 449.11 288.643C449.414 288.202 449.624 287.701 449.725 287.173C449.826 286.645 449.817 286.101 449.697 285.577C449.578 285.053 449.351 284.56 449.031 284.13C448.712 283.7 448.307 283.344 447.843 283.082C445.004 281.597 439.903 284.335 437.881 286.382C437.745 286.51 436.342 288.292 435.682 289.163L435.525 289.078C436.403 286.277 437.524 283.56 438.877 280.96C439.599 279.517 440.374 278.18 441.16 276.896C442.071 277.353 446.24 279.411 448.492 279.496C450.744 279.581 453.363 279.093 454.777 277.321C455.128 276.918 455.391 276.444 455.55 275.931C455.708 275.418 455.757 274.877 455.695 274.343C455.633 273.81 455.46 273.295 455.188 272.834C454.916 272.372 454.551 271.974 454.117 271.665C451.446 269.872 446.093 272.026 443.852 273.787C443.737 273.883 442.605 275.018 441.757 275.856C442.124 275.283 442.48 274.679 442.804 274.138C444.135 272.1 445.486 270.318 446.69 268.747C447.392 267.856 448.031 267.071 448.639 266.339C449.77 266.339 454.284 266.179 456.264 265.277C458.244 264.376 460.454 262.646 460.873 260.407C460.999 259.886 461.017 259.344 460.925 258.816C460.832 258.288 460.631 257.785 460.335 257.34C460.039 256.895 459.654 256.518 459.206 256.233C458.757 255.948 458.255 255.761 457.73 255.685C454.588 255.346 450.775 259.76 449.613 262.402C449.508 262.625 448.345 266.381 448.408 266.381H448.471C447.874 267.071 447.235 267.824 446.554 268.652C445.308 270.201 443.915 271.962 442.532 273.957C441.006 276.114 439.607 278.361 438.342 280.684C436.921 283.282 435.729 286.002 434.781 288.812V288.908C434.781 287.963 434.781 285.311 434.729 285.109C434.362 282.234 431.995 276.918 428.853 276.323C428.327 276.239 427.79 276.268 427.277 276.409C426.763 276.549 426.285 276.798 425.873 277.138C425.46 277.479 425.124 277.903 424.885 278.385C424.645 278.866 424.509 279.393 424.485 279.931C424.296 282.212 425.93 284.494 427.522 285.926C429.313 287.55 434.299 289.109 434.687 289.247C433.796 292.129 433.096 295.068 432.592 298.044C432.278 299.773 432.026 301.535 431.796 303.296C431.796 302.479 431.796 301.736 431.796 301.641C431.429 298.765 429.052 293.449 425.909 292.855C425.385 292.773 424.849 292.803 424.337 292.944C423.824 293.085 423.347 293.334 422.936 293.674C422.525 294.015 422.19 294.439 421.951 294.919C421.713 295.4 421.577 295.926 421.552 296.463C421.363 298.744 422.997 301.025 424.59 302.458C426.182 303.89 430.413 305.344 431.534 305.715L431.283 307.742C430.906 310.989 430.528 314.236 430.078 317.409C429.91 318.523 429.711 319.616 429.523 320.719C429.523 319.987 429.523 319.372 429.523 319.276C429.156 316.411 426.779 311.085 423.636 310.501C423.112 310.417 422.575 310.446 422.062 310.586C421.549 310.727 421.071 310.975 420.66 311.316C420.249 311.657 419.913 312.082 419.675 312.563C419.437 313.044 419.302 313.571 419.279 314.109C419.09 316.379 420.724 318.661 422.317 320.104C423.909 321.547 427.732 322.852 429.062 323.287C428.832 324.401 428.601 325.526 428.329 326.598C428.119 327.319 427.973 328.03 427.721 328.72C427.47 329.41 427.271 330.152 427.051 330.842C426.569 332.179 426.077 333.558 425.574 334.853C425.239 335.755 424.893 336.604 424.527 337.463C424.694 336.402 424.988 334.174 424.988 333.993C424.955 331.447 424.277 328.951 423.018 326.746C423.032 326.466 423.015 326.184 422.966 325.908C422.902 325.373 422.728 324.859 422.454 324.397C422.18 323.936 421.813 323.538 421.377 323.231C420.941 322.923 420.445 322.713 419.923 322.613C419.401 322.512 418.864 322.525 418.347 322.65C415.257 323.489 413.298 329.017 413.11 331.871C413.11 332.041 413.204 333.898 413.298 335.055C413.141 334.375 412.994 333.718 412.827 333.017C412.502 331.627 412.146 330.258 411.779 328.773C411.57 328.062 411.35 327.351 411.14 326.651C410.931 325.95 410.638 325.197 410.386 324.465C409.779 322.767 409.077 321.08 408.291 319.404C409.486 319.106 413.728 318.013 415.424 316.698C417.121 315.382 418.912 313.228 418.891 310.947C418.906 310.409 418.809 309.874 418.607 309.376C418.404 308.879 418.1 308.43 417.714 308.06C417.329 307.689 416.871 307.405 416.37 307.226C415.869 307.047 415.336 306.977 414.806 307.021C411.664 307.371 408.868 312.496 408.291 315.329C408.291 315.509 408.071 317.589 407.988 318.735C407.527 317.727 407.087 316.719 406.595 315.711C405.17 312.814 403.641 309.928 402.133 307.042L400.76 304.379C401.19 304.283 406.249 303.095 408.155 301.609C409.842 300.293 411.633 298.15 411.622 295.858C411.636 295.32 411.537 294.786 411.334 294.289C411.131 293.793 410.826 293.345 410.441 292.975C410.056 292.605 409.599 292.321 409.099 292.141C408.598 291.961 408.066 291.89 407.537 291.932C404.395 292.282 401.598 297.418 401.022 300.251C401.022 300.463 400.708 303.434 400.677 304.219C399.682 302.267 398.697 300.315 397.807 298.341C396.59 295.691 395.54 292.966 394.664 290.181C394.863 290.181 400.153 288.918 402.101 287.401C403.798 286.085 405.589 283.931 405.568 281.65C405.583 281.112 405.486 280.577 405.283 280.079C405.08 279.582 404.776 279.134 404.391 278.763C404.005 278.393 403.547 278.109 403.046 277.93C402.545 277.751 402.013 277.681 401.483 277.724C398.341 278.074 395.544 283.199 394.968 286.032C394.968 286.223 394.727 288.505 394.654 289.587H394.476C393.676 286.76 393.133 283.866 392.852 280.939C392.664 279.326 392.59 277.756 392.538 276.27C393.585 276.154 398.142 275.528 400.048 274.36C401.954 273.193 403.892 271.304 404.123 269.055C404.195 268.522 404.156 267.979 404.008 267.462C403.86 266.946 403.606 266.466 403.263 266.055C402.921 265.644 402.497 265.31 402.018 265.076C401.54 264.841 401.019 264.711 400.488 264.694C397.283 264.694 393.994 269.479 393.156 272.238C393.104 272.387 392.779 273.957 392.569 275.114C392.569 274.435 392.569 273.724 392.569 273.076C392.569 270.625 392.727 268.386 392.873 266.402C392.967 265.267 393.072 264.28 393.187 263.304C394.109 262.657 397.807 260.014 398.948 258.126C400.09 256.237 400.97 253.616 400.142 251.483C399.959 250.977 399.673 250.516 399.302 250.13C398.932 249.743 398.485 249.44 397.991 249.24C397.497 249.039 396.967 248.947 396.435 248.968C395.904 248.989 395.382 249.123 394.905 249.361C392.067 250.847 391.323 256.64 391.763 259.494C391.763 259.781 392.831 263.569 392.884 263.537Z" fill="#263238"/>
    <path d="M246.305 355.938H201.59L169.287 373.605H218.045L246.305 355.938Z" fill="white" stroke="#263238" stroke-width="1.25474" stroke-linecap="round" stroke-linejoin="round"/>
    <path d="M201.129 360.213H234.93" stroke="#263238" stroke-width="1.25474" stroke-linecap="round" stroke-linejoin="round"/>
    <path d="M195.935 362.963H229.735" stroke="#263238" stroke-width="1.25474" stroke-linecap="round" stroke-linejoin="round"/>
    <path d="M190.749 365.711H224.55" stroke="#263238" stroke-width="1.25474" stroke-linecap="round" stroke-linejoin="round"/>
    <path d="M185.564 368.469H219.365" stroke="#263238" stroke-width="1.25474" stroke-linecap="round" stroke-linejoin="round"/>
    <path d="M169.287 373.607V376.653H219.061L218.045 373.607H169.287Z" fill="white" stroke="#263238" stroke-width="1.25474" stroke-linecap="round" stroke-linejoin="round"/>
    <path d="M219.061 376.65L247.614 358.537L246.305 355.938L218.045 373.605L219.061 376.65Z" fill="white" stroke="#263238" stroke-width="1.25474" stroke-linecap="round" stroke-linejoin="round"/>
    <path d="M170.094 372.681C170.017 372.376 169.979 372.062 169.979 371.747C169.979 371.053 170.182 370.374 170.563 369.797C170.944 369.219 171.486 368.769 172.119 368.504C172.752 368.238 173.449 368.168 174.122 368.304C174.794 368.439 175.412 368.773 175.897 369.264" stroke="#263238" stroke-width="1.25474" stroke-linecap="round" stroke-linejoin="round"/>
    <path d="M174.629 370.559C174.553 370.257 174.515 369.947 174.514 369.636C174.514 368.942 174.717 368.263 175.098 367.685C175.479 367.108 176.021 366.658 176.654 366.392C177.287 366.127 177.984 366.057 178.657 366.192C179.329 366.328 179.947 366.662 180.432 367.153" stroke="#263238" stroke-width="1.25474" stroke-linecap="round" stroke-linejoin="round"/>
    <path d="M178.808 368.438C178.729 368.136 178.687 367.826 178.683 367.515C178.686 366.82 178.891 366.142 179.274 365.566C179.656 364.989 180.198 364.54 180.831 364.275C181.465 364.01 182.162 363.94 182.834 364.075C183.507 364.209 184.125 364.542 184.611 365.032" stroke="#263238" stroke-width="1.25474" stroke-linecap="round" stroke-linejoin="round"/>
    <path d="M182.809 366.219C182.725 365.919 182.683 365.608 182.684 365.296C182.687 364.601 182.892 363.923 183.275 363.347C183.657 362.771 184.199 362.322 184.832 362.056C185.466 361.791 186.163 361.721 186.835 361.856C187.508 361.99 188.126 362.323 188.612 362.813" stroke="#263238" stroke-width="1.25474" stroke-linecap="round" stroke-linejoin="round"/>
    <path d="M187.251 363.612C187.175 363.31 187.137 363 187.136 362.689C187.136 361.994 187.339 361.315 187.72 360.738C188.101 360.161 188.643 359.711 189.276 359.445C189.91 359.179 190.606 359.11 191.279 359.245C191.951 359.381 192.569 359.715 193.054 360.206" stroke="#263238" stroke-width="1.25474" stroke-linecap="round" stroke-linejoin="round"/>
    <path d="M192.006 360.903C191.921 360.603 191.879 360.292 191.88 359.98C191.88 359.285 192.084 358.607 192.465 358.029C192.846 357.452 193.387 357.002 194.02 356.736C194.654 356.47 195.351 356.401 196.023 356.536C196.695 356.672 197.313 357.006 197.798 357.497" stroke="#263238" stroke-width="1.25474" stroke-linecap="round" stroke-linejoin="round"/>
    <path d="M194.562 359.281C194.478 358.981 194.436 358.67 194.437 358.358C194.435 357.662 194.637 356.982 195.017 356.403C195.397 355.824 195.938 355.372 196.572 355.105C197.206 354.838 197.904 354.768 198.577 354.903C199.25 355.038 199.869 355.372 200.355 355.864" stroke="#263238" stroke-width="1.25474" stroke-linecap="round" stroke-linejoin="round"/>
    <path d="M252.296 366.494C252.296 366.494 255.7 374.092 250.055 376.277L283.573 398.072C283.573 398.072 286.83 399.971 290.978 396.194C295.126 392.416 291.669 384.129 289.805 383.079C287.94 382.028 252.296 366.494 252.296 366.494Z" fill="white" stroke="#263238" stroke-width="1.25474" stroke-linecap="round" stroke-linejoin="round"/>
    <path d="M294.299 349.211L250.935 366.072L285.626 385.171C287.444 386.438 288.958 388.103 290.056 390.042C290.257 390.532 290.415 391.04 290.528 391.559C290.734 392.526 290.657 393.533 290.306 394.456C289.954 395.379 289.344 396.177 288.551 396.754C287.757 397.33 286.814 397.658 285.839 397.699C284.863 397.739 283.897 397.49 283.06 396.981L250.055 376.322C250.055 376.322 246.986 376.322 250.495 378.985C253.407 381.171 275.801 394.965 282.913 399.209C283.633 399.642 284.44 399.905 285.274 399.979C286.108 400.052 286.948 399.934 287.731 399.634L335.044 380.227C335.737 379.763 336.328 379.159 336.778 378.452C337.229 377.745 337.53 376.951 337.662 376.12C337.939 374.465 337.667 372.763 336.888 371.281C336.109 369.799 334.868 368.62 333.357 367.929L294.299 349.211Z" fill="#263238" stroke="#263238" stroke-width="1.25474" stroke-linecap="round" stroke-linejoin="round"/>
    <mask id="mask0_3345_65592" style="mask-type:luminance" maskUnits="userSpaceOnUse" x="31" y="77" width="105" height="275">
    <path d="M135.906 77.209H31.4248V351.596H135.906V77.209Z" fill="white"/>
    </mask>
    <g mask="url(#mask0_3345_65592)">
    <path d="M54.4354 134.953L48.0146 116.374L54.4354 124.268L49.3868 96.4039L57.1902 116.374L59.9345 77.3574L64.5222 114.517L69.5708 107.078V116.374L75.5307 103.832L72.3151 125.669L77.8246 121.955L69.11 134.03L54.4354 134.953Z" fill="#86C240"/>
    <path d="M74.6091 130.316H50.7695L55.0535 179.084H70.3251L74.6091 130.316Z" fill="#263238" stroke="#263238" stroke-width="1.25474" stroke-linecap="round" stroke-linejoin="round"/>
    <path d="M119.324 178.52H38.0957V352.824H119.324V178.52Z" fill="white" stroke="#263238" stroke-width="1.25474" stroke-linecap="round" stroke-linejoin="round"/>
    <path d="M123.786 178.52H78.7148V352.824H123.786V178.52Z" fill="white" stroke="#263238" stroke-width="1.25474" stroke-linecap="round" stroke-linejoin="round"/>
    <path d="M118.706 178.52H78.7148V352.824H118.706V178.52Z" fill="#263238" stroke="#263238" stroke-width="1.25474" stroke-linecap="round" stroke-linejoin="round"/>
    <path d="M114.212 312.314H78.7148V348.009H114.212V312.314Z" fill="#86C240" stroke="#263238" stroke-width="1.25474" stroke-linecap="round" stroke-linejoin="round"/>
    <path d="M114.212 314.244H78.7148V318.817H114.212V314.244Z" fill="white" stroke="#263238" stroke-width="1.25474" stroke-linecap="round" stroke-linejoin="round"/>
    <path d="M114.212 340.518H78.7148V345.091H114.212V340.518Z" fill="white" stroke="#263238" stroke-width="1.25474" stroke-linecap="round" stroke-linejoin="round"/>
    <path d="M85.4502 313.047V358.186" stroke="#263238" stroke-width="1.25474" stroke-linecap="round" stroke-linejoin="round"/>
    <path d="M97.8311 313.047V358.186" stroke="#263238" stroke-width="1.25474" stroke-linecap="round" stroke-linejoin="round"/>
    <path d="M108.692 313.047V358.186" stroke="#263238" stroke-width="1.25474" stroke-linecap="round" stroke-linejoin="round"/>
    <path d="M114.212 185.004H78.7148V237.485H114.212V185.004Z" fill="#86C240" stroke="#263238" stroke-width="1.25474" stroke-linecap="round" stroke-linejoin="round"/>
    <path d="M114.212 187.199H78.7148V192.399H114.212V187.199Z" fill="white" stroke="#263238" stroke-width="1.25474" stroke-linecap="round" stroke-linejoin="round"/>
    <path d="M114.212 220.838H78.7148V226.037H114.212V220.838Z" fill="white" stroke="#263238" stroke-width="1.25474" stroke-linecap="round" stroke-linejoin="round"/>
    <path d="M85.4502 185.844V237.126" stroke="#263238" stroke-width="1.25474" stroke-linecap="round" stroke-linejoin="round"/>
    <path d="M97.8311 185.844V237.126" stroke="#263238" stroke-width="1.25474" stroke-linecap="round" stroke-linejoin="round"/>
    <path d="M108.692 185.844V237.126" stroke="#263238" stroke-width="1.25474" stroke-linecap="round" stroke-linejoin="round"/>
    <path d="M114.212 248.258H78.7148V300.739H114.212V248.258Z" fill="#86C240" stroke="#263238" stroke-width="1.25474" stroke-linecap="round" stroke-linejoin="round"/>
    <path d="M114.212 250.453H78.7148V255.652H114.212V250.453Z" fill="white" stroke="#263238" stroke-width="1.25474" stroke-linecap="round" stroke-linejoin="round"/>
    <path d="M114.212 284.102H78.7148V289.301H114.212V284.102Z" fill="white" stroke="#263238" stroke-width="1.25474" stroke-linecap="round" stroke-linejoin="round"/>
    <path d="M85.4502 249.096V300.378" stroke="#263238" stroke-width="1.25474" stroke-linecap="round" stroke-linejoin="round"/>
    <path d="M97.8311 249.096V300.378" stroke="#263238" stroke-width="1.25474" stroke-linecap="round" stroke-linejoin="round"/>
    <path d="M108.692 249.096V300.378" stroke="#263238" stroke-width="1.25474" stroke-linecap="round" stroke-linejoin="round"/>
    <path d="M119.334 236.766H78.7148V242.729H119.334V236.766Z" fill="white" stroke="#263238" stroke-width="1.25474" stroke-linecap="round" stroke-linejoin="round"/>
    <path d="M119.334 300.418H78.7148V306.381H119.334V300.418Z" fill="white" stroke="#263238" stroke-width="1.25474" stroke-linecap="round" stroke-linejoin="round"/>
    <path d="M119.335 178.52V352.824" stroke="#263238" stroke-width="1.25474" stroke-linecap="round" stroke-linejoin="round"/>
    <path d="M72.9961 178.521V352.826H78.7151V185.004H118.633V178.457L72.9961 178.521Z" fill="white" stroke="#263238" stroke-width="1.25474" stroke-linecap="round" stroke-linejoin="round"/>
    <path d="M78.7148 185.003V178.52" stroke="#263238" stroke-width="1.25474" stroke-linecap="round" stroke-linejoin="round"/>
    </g>
    <path d="M469 351.855H4.71484" stroke="#263238" stroke-width="1.25474" stroke-linecap="round" stroke-linejoin="round"/>
    <path d="M245.424 280.844H172.837C163.829 280.143 163.285 283.772 163.285 283.772L149.668 351.883H239.286C239.758 348.477 246.828 298.108 248.158 289.969C249.551 281.544 245.424 280.844 245.424 280.844Z" fill="white" stroke="#263238" stroke-width="1.25474" stroke-linecap="round" stroke-linejoin="round"/>
    <path d="M245.425 280.846H245.289C244.765 280.846 242.806 281.376 241.612 286.809C240.418 292.242 233.599 338.93 231.714 351.885H239.318C239.79 348.479 246.86 298.11 248.19 289.971C249.552 281.546 245.425 280.846 245.425 280.846Z" fill="#263238" stroke="#263238" stroke-width="1.25474" stroke-linecap="round" stroke-linejoin="round"/>
    <path d="M127.724 351.884H212.2C211.76 338.504 210.105 290.256 208.848 284.272C207.403 277.311 203.789 276.218 198.73 275.847C193.671 275.475 189.911 276.802 179.792 276.802C169.674 276.802 159.891 275.741 159.891 275.741C159.891 275.741 155.921 275.369 153.753 275.369C151.585 275.369 150.139 276.833 147.249 276.833C142.058 276.9 136.867 276.656 131.705 276.101C126.279 275.369 119.774 278.298 118.695 283.794C117.753 288.569 115.553 339.247 114.998 352.309H127.703L127.724 351.884Z" fill="#86C240" stroke="#263238" stroke-width="1.25474" stroke-linecap="round" stroke-linejoin="round"/>
    <path d="M152.119 283.223C152.119 283.223 155.104 297.738 163.452 301.357" stroke="#263238" stroke-width="1.25474" stroke-linecap="round" stroke-linejoin="round"/>
    <path d="M144.357 280.801C144.357 280.801 140.167 289.873 146.148 303.168" stroke="#263238" stroke-width="1.25474" stroke-linecap="round" stroke-linejoin="round"/>
    <path d="M193.891 299.551C193.891 299.551 184.348 324.327 163.452 335.819" stroke="#263238" stroke-width="1.25474" stroke-linecap="round" stroke-linejoin="round"/>
    <path d="M154.496 267.282C154.496 267.282 155.219 277.532 156.298 283.389C157.377 289.246 163.525 292.939 170.396 290.711C177.267 288.482 180.148 283.761 180.514 280.461C180.881 277.161 180.87 264.725 180.87 264.725C180.87 264.725 170.009 272.046 154.496 267.282Z" fill="white" stroke="#263238" stroke-width="1.25474" stroke-linecap="round" stroke-linejoin="round"/>
    <path d="M191.576 208.966C191.576 208.966 192.56 207.64 189.942 203.661C187.323 199.682 181.101 197.029 181.101 197.029L185.029 202.334C185.029 202.334 173.905 196.371 169.318 196.371C164.73 196.371 153.25 198.026 153.25 198.026L158.812 199.353C158.812 199.353 145.069 203.661 143.435 205.645C141.801 207.629 133.946 214.272 135.58 214.272C137.214 214.272 145.394 212.945 145.394 212.945C145.394 212.945 137.214 220.903 137.214 224.214C137.214 227.525 144.41 243.441 144.41 243.441C144.41 243.441 149.322 252.397 150.956 248.078C152.59 243.759 149.971 233.499 150.307 232.501C150.642 231.504 169.611 229.848 173.863 229.848C178.116 229.848 177.467 240.13 179.101 241.786C180.735 243.441 188.632 246.412 189.91 246.412C191.188 246.412 193.513 245.425 193.513 244.099C193.594 241.26 194.146 238.454 195.147 235.801C196.457 232.48 198.091 229.498 198.415 225.519C198.74 221.54 196.457 212.595 196.457 212.595H199.4C199.4 212.595 196.488 207.64 191.576 208.966Z" fill="#263238" stroke="#263238" stroke-width="1.25474" stroke-linecap="round" stroke-linejoin="round"/>
    <path d="M146.096 241.107C146.096 241.107 144.452 234.815 141.509 239.123C139.613 241.903 144.452 253.045 147.071 253.713C149.689 254.382 146.096 241.107 146.096 241.107Z" fill="white" stroke="#263238" stroke-width="1.25474" stroke-linecap="round" stroke-linejoin="round"/>
    <path d="M146.096 228.523C146.096 228.523 146.096 252.726 147.73 258.69C149.364 264.653 155.91 273.608 165.4 273.608C174.89 273.608 181.436 268.632 184.055 264.992C186.673 261.353 187.972 254.053 187.972 254.053C187.972 254.053 190.926 256.376 194.519 252.058C198.111 247.739 198.635 240.078 197.137 239.134C194.519 237.478 191.575 239.463 190.266 240.789L187.647 243.442C187.647 243.442 183.395 240.46 183.395 236.481C183.395 232.502 184.055 225.212 184.055 225.212L181.101 227.196L181.436 224.544C181.436 224.544 180.776 225.212 176.848 225.212C172.92 225.212 163.431 225.87 163.431 225.87L168.343 219.238C168.343 219.238 158.853 223.557 155.585 225.541C152.317 227.525 146.096 228.523 146.096 228.523Z" fill="white" stroke="#263238" stroke-width="1.25474" stroke-linecap="round" stroke-linejoin="round"/>
    <path d="M158.393 243.049C158.393 244.842 157.691 246.306 156.822 246.306C155.953 246.306 155.251 244.842 155.251 243.049C155.251 241.255 155.953 239.791 156.822 239.791C157.691 239.791 158.393 241.255 158.393 243.049Z" fill="#263238"/>
    <path d="M173.539 243.494C173.539 245.287 172.837 246.741 171.968 246.741C171.098 246.741 170.396 245.287 170.396 243.494C170.396 241.701 171.098 240.236 171.968 240.236C172.837 240.236 173.539 241.69 173.539 243.494Z" fill="#263238"/>
    <path d="M161.012 250.74C161.012 250.74 161.012 255.398 166.71 254.284" stroke="#263238" stroke-width="1.25474" stroke-linecap="round" stroke-linejoin="round"/>
    <path d="M159.263 259.147C159.263 259.147 163.861 262.022 170.219 258.924" stroke="#263238" stroke-width="1.25474" stroke-linecap="round" stroke-linejoin="round"/>
    <path d="M151.155 236.754C151.716 235.721 152.609 234.915 153.687 234.471C154.765 234.026 155.96 233.971 157.073 234.314" stroke="#263238" stroke-width="1.25474" stroke-linecap="round" stroke-linejoin="round"/>
    <path d="M168.899 234.316C168.899 234.316 174.137 232.767 176.127 236.322" stroke="#263238" stroke-width="1.25474" stroke-linecap="round" stroke-linejoin="round"/>
    <path d="M119.345 281.684L104.827 322.185C104.827 322.185 95.526 329.029 94.531 330.801C92.0276 335.226 95.2851 341.508 98.2912 344.786C103.026 349.933 112.652 350.665 118.412 346.845C122.194 344.341 124.414 339.248 125.839 335.056L127.368 299.467" fill="#86C240"/>
    <path d="M119.345 281.684L104.827 322.185C104.827 322.185 95.526 329.029 94.531 330.801C92.0276 335.226 95.2851 341.508 98.2912 344.786C103.026 349.933 112.652 350.665 118.412 346.845C122.194 344.341 124.414 339.248 125.839 335.056L127.368 299.467" stroke="#263238" stroke-width="1.25474" stroke-linecap="round" stroke-linejoin="round"/>
    <path d="M98.543 325.737C98.543 325.737 105.99 319.53 118.256 326.628" stroke="#263238" stroke-width="1.25474" stroke-linecap="round" stroke-linejoin="round"/>
    <path d="M104.973 328.775L114.809 330.898C114.809 330.898 124.236 327.003 125.063 331.333C125.891 335.662 119.512 336.967 117.794 336.967C116.076 336.967 111.813 336.532 110.106 336.967C108.398 337.402 106.262 339.556 102.418 339.991C102.418 339.991 91.7338 344.32 87.4603 341.721C83.1867 339.121 86.6014 330.049 92.1632 327.003C97.7251 323.958 104.973 328.775 104.973 328.775Z" fill="white" stroke="#263238" stroke-width="1.25474" stroke-linecap="round" stroke-linejoin="round"/>
    <path d="M83.0721 331.978C83.0721 331.978 78.8824 329.453 77.5626 332.668C76.2428 335.883 72.3988 343.342 74.7974 342.674C77.196 342.005 83.0721 331.978 83.0721 331.978Z" fill="white" stroke="#263238" stroke-width="1.25474" stroke-linecap="round" stroke-linejoin="round"/>
    <path d="M89.5979 327.477C89.5979 327.477 82.7057 326.724 81.8992 328.772C80.4119 332.581 78.4846 343.065 81.4802 343.924C84.4759 344.783 85.3243 338.3 87.0316 334.374C88.0276 332.131 88.8847 329.828 89.5979 327.477Z" fill="white" stroke="#263238" stroke-width="1.25474" stroke-linecap="round" stroke-linejoin="round"/>
    <path d="M93.4416 323.148C93.4416 323.148 88.3092 322.713 86.6019 326.183C84.8946 329.653 83.8995 343.521 85.5545 343.521C87.2094 343.521 86.7904 344.89 89.3566 339.277C90.6136 336.529 92.4989 327.488 92.4989 327.488L93.4416 323.148Z" fill="white" stroke="#263238" stroke-width="1.25474" stroke-linecap="round" stroke-linejoin="round"/>
    <path d="M106.21 329.952C106.21 329.952 99.4013 324.074 97.6102 323.066C95.8191 322.058 94.6041 321.644 92.6035 323.469C90.6029 325.294 90.2049 331.777 88.6128 335.831C87.0207 339.884 85.4076 344.128 87.4082 344.128C89.4088 344.128 91.2104 343.12 92.8025 340.945C94.3946 338.77 97.4112 330.812 97.4112 330.812" fill="white"/>
    <path d="M106.21 329.952C106.21 329.952 99.4013 324.074 97.6102 323.066C95.8191 322.058 94.6041 321.644 92.6035 323.469C90.6029 325.294 90.2049 331.777 88.6128 335.831C87.0207 339.884 85.4076 344.128 87.4082 344.128C89.4088 344.128 91.2104 343.12 92.8025 340.945C94.3946 338.77 97.4112 330.812 97.4112 330.812" stroke="#263238" stroke-width="1.25474" stroke-linecap="round" stroke-linejoin="round"/>
    <path d="M96.4062 334.81C96.4062 334.81 98.8049 335.871 102.209 333.59L96.4062 334.81Z" fill="white"/>
    <path d="M96.4062 334.81C96.4062 334.81 98.8049 335.871 102.209 333.59" stroke="#263238" stroke-width="1.25474" stroke-linecap="round" stroke-linejoin="round"/>
    <path d="M197.054 275.562C197.054 275.562 205.234 273.97 209.204 278.002C213.174 282.034 224.601 312.275 228.581 322.568C232.562 332.86 236.531 340.14 235.442 345.265C234.353 350.39 226.015 352.215 219.909 352.586C212.964 353 208.387 348.554 208.387 347.09C208.387 345.625 205.852 342.336 210.555 330.982L207.298 306.821" fill="#86C240"/>
    <path d="M197.054 275.562C197.054 275.562 205.234 273.97 209.204 278.002C213.174 282.034 224.601 312.275 228.581 322.568C232.562 332.86 236.531 340.14 235.442 345.265C234.353 350.39 226.015 352.215 219.909 352.586C212.964 353 208.387 348.554 208.387 347.09C208.387 345.625 205.852 342.336 210.555 330.982L207.298 306.821" stroke="#263238" stroke-width="1.25474" stroke-linecap="round" stroke-linejoin="round"/>
    <path d="M218.4 332.614C218.4 332.614 211.529 329.59 210.377 329.59C209.413 330.773 208.851 332.239 208.774 333.77C208.774 336.094 209.005 345.612 210.147 346.079C211.288 346.546 214.734 344.456 217.028 341.209C219.322 337.962 219.772 333.304 218.4 332.614Z" fill="white" stroke="#263238" stroke-width="1.25474" stroke-linecap="round" stroke-linejoin="round"/>
    <path d="M213.362 319.627L209.466 351.64L210.859 356.765L213.153 352.351L217.28 320.073C217.336 319.553 217.187 319.031 216.865 318.622C216.543 318.213 216.075 317.948 215.562 317.887C215.304 317.852 215.042 317.869 214.791 317.937C214.54 318.006 214.305 318.125 214.1 318.287C213.895 318.449 213.724 318.652 213.597 318.882C213.471 319.112 213.391 319.365 213.362 319.627Z" fill="white" stroke="#263238" stroke-width="1.25474" stroke-linecap="round" stroke-linejoin="round"/>
    <path d="M213.132 352.351L209.466 351.65L210.838 356.765L213.132 352.351Z" fill="white" stroke="#263238" stroke-width="1.25474" stroke-linecap="round" stroke-linejoin="round"/>
    <path d="M215.541 317.886C215.284 317.854 215.023 317.874 214.774 317.944C214.525 318.015 214.292 318.136 214.089 318.299C213.886 318.462 213.717 318.664 213.592 318.894C213.468 319.124 213.389 319.376 213.362 319.637L212.859 323.775L216.683 324.55L217.259 320.072C217.315 319.552 217.166 319.03 216.844 318.621C216.522 318.212 216.054 317.948 215.541 317.886Z" fill="white" stroke="#263238" stroke-width="1.25474" stroke-linecap="round" stroke-linejoin="round"/>
    <path d="M210.378 329.59C209.236 329.59 206.942 332.614 205.57 334.237C204.198 335.861 204.648 339.341 205.79 342.132C206.932 344.923 207.403 350.026 208.775 350.26C210.147 350.493 211.299 349.103 211.299 346.546C211.299 343.989 210.838 338.652 210.838 338.652" fill="white"/>
    <path d="M210.378 329.59C209.236 329.59 206.942 332.614 205.57 334.237C204.198 335.861 204.648 339.341 205.79 342.132C206.932 344.923 207.403 350.026 208.775 350.26C210.147 350.493 211.299 349.103 211.299 346.546C211.299 343.989 210.838 338.652 210.838 338.652" stroke="#263238" stroke-width="1.25474" stroke-linecap="round" stroke-linejoin="round"/>
    <path d="M225.733 346.08C225.733 346.08 227.346 350.494 225.513 352.818C223.68 355.142 217.71 354.208 216.568 353.285C215.426 352.362 221.616 350.728 225.733 346.08Z" fill="white" stroke="#263238" stroke-width="1.25474" stroke-linecap="round" stroke-linejoin="round"/>
    <path d="M225.052 341.91C225.66 342.591 226.069 343.431 226.23 344.335C226.391 345.239 226.298 346.171 225.963 347.025C224.821 350.038 220.726 352.595 217.709 353.062C214.693 353.529 212.21 351.895 213.593 350.94C214.975 349.985 221.836 345.391 225.052 341.91Z" fill="white" stroke="#263238" stroke-width="1.25474" stroke-linecap="round" stroke-linejoin="round"/>
    <path d="M222.296 336.795C222.296 336.795 225.051 339.341 225.051 341.898C225.051 344.456 218.4 350.493 215.195 351.65C211.99 352.806 210.377 351.65 211.298 349.528C212.22 347.405 221.385 336.996 221.385 336.996C221.385 336.996 220.924 336.328 222.296 336.795Z" fill="white" stroke="#263238" stroke-width="1.25474" stroke-linecap="round" stroke-linejoin="round"/>
    <path d="M214.504 336.795C214.504 336.795 209.466 345.613 208.774 348.404C208.083 351.194 210.607 351.194 212.21 350.027C213.813 348.86 221.386 339.575 222.297 336.795C223.208 334.015 221.616 330.991 218.631 331.49C215.646 331.989 214.504 336.795 214.504 336.795Z" fill="white" stroke="#263238" stroke-width="1.25474" stroke-linecap="round" stroke-linejoin="round"/>
    <path d="M396.079 351.831C397.566 340.838 403.526 296.781 404.741 289.428C406.124 281.003 401.966 280.303 401.966 280.303H329.41C320.402 279.602 319.857 283.231 319.857 283.231L306.597 351.831H396.079Z" fill="white" stroke="#263238" stroke-width="1.25474" stroke-linecap="round" stroke-linejoin="round"/>
    <path d="M396.079 351.829C397.566 340.836 403.526 296.779 404.741 289.426C406.123 281.001 401.965 280.301 401.965 280.301H401.829C401.305 280.301 399.347 280.831 398.163 286.264C397.032 291.41 390.758 336.135 388.495 351.829H396.079Z" fill="#263238" stroke="#263238" stroke-width="1.25474" stroke-linecap="round" stroke-linejoin="round"/>
    <path d="M248.18 351.83C253.711 345.696 271.339 326.172 275.79 321.652C281.101 316.273 285.144 311.158 285.144 311.158L286.663 351.83H370.793C370.698 351.278 365.954 320.697 361.952 299.645C357.909 278.424 353.866 258.178 344.774 245.381C335.683 232.585 308.638 219.533 308.638 219.533L285.395 237.922C285.395 237.922 278.577 246.113 276.555 254.05C274.534 261.987 269.474 282.201 267.202 290.127C265.107 297.396 239.298 344.031 234.982 351.787L248.18 351.83Z" fill="#86C240" stroke="#263238" stroke-width="1.25474" stroke-linecap="round" stroke-linejoin="round"/>
    <path d="M343.151 281.713C347.634 303.423 351.583 323.392 355.721 344.561" stroke="#263238" stroke-width="1.25474" stroke-linecap="round" stroke-linejoin="round"/>
    <path d="M324.455 288.027C327.922 306.066 330.551 326.057 333.987 344.647" stroke="#263238" stroke-width="1.25474" stroke-linecap="round" stroke-linejoin="round"/>
    <path d="M304.082 248.988C306.931 280.821 309.55 312.738 313.153 344.486" stroke="#263238" stroke-width="1.25474" stroke-linecap="round" stroke-linejoin="round"/>
    <path d="M285.344 257.605C288.486 287.443 291.126 315.403 294.834 344.668" stroke="#263238" stroke-width="1.25474" stroke-linecap="round" stroke-linejoin="round"/>
    <path d="M278.546 263.918C278.546 263.918 270.051 302.382 265.516 312.728" stroke="#263238" stroke-width="1.25474" stroke-linecap="round" stroke-linejoin="round"/>
    <path d="M280.808 293.193C280.808 293.193 275.718 314.415 271.748 322.469" stroke="#263238" stroke-width="1.25474" stroke-linecap="round" stroke-linejoin="round"/>
    <path d="M309.151 230.621L322.181 239.799" stroke="#263238" stroke-width="1.25474" stroke-linecap="round" stroke-linejoin="round"/>
    <path d="M285.145 311.159L280.851 276.355" stroke="#263238" stroke-width="1.25474" stroke-linecap="round" stroke-linejoin="round"/>
    <path d="M248.181 351.831C253.418 346.006 269.559 328.137 274.922 322.556C270.439 319.585 262.792 314.534 257.398 311.064C249.637 326.323 237.853 346.887 235.004 351.831H248.181Z" fill="white" stroke="#263238" stroke-width="1.25474" stroke-linecap="round" stroke-linejoin="round"/>
    <path d="M253.806 317.813C253.806 317.813 268.47 328.562 269.727 328.562C270.984 328.562 278.316 321.134 278.818 319.606C279.321 318.078 261.138 305.525 260.09 305.525C259.043 305.525 253.806 314.237 253.806 317.813Z" fill="white" stroke="#263238" stroke-width="1.25474" stroke-linecap="round" stroke-linejoin="round"/>
    <path d="M288.937 246.145L291.461 273.022L296.007 272.003L295.504 266.114" stroke="#263238" stroke-width="1.25474" stroke-linecap="round" stroke-linejoin="round"/>
    <path d="M278.326 242.303L277.059 252.797L286.412 243.077L278.326 242.303Z" fill="white" stroke="#263238" stroke-width="1.25474" stroke-linecap="round" stroke-linejoin="round"/>
    <path d="M283.626 233.604L278.326 242.304L292.728 247.939L296.761 237.19L283.626 233.604Z" fill="white" stroke="#263238" stroke-width="1.25474" stroke-linecap="round" stroke-linejoin="round"/>
    <path d="M245.478 174.734C245.478 174.734 243.457 187.796 244.211 190.353C244.965 192.91 248.254 195.988 248.506 198.29C248.757 200.593 242.703 208.519 244.462 210.567C246.222 212.615 250.024 214.153 250.024 214.153C250.024 214.153 257.608 234.378 261.138 235.142C264.667 235.906 276.053 229.773 276.053 229.773C276.053 229.773 290.193 242.824 290.958 243.567C291.723 244.309 305.863 215.416 305.863 215.416C305.863 215.416 299.578 202.874 299.578 202.099C299.578 201.325 309.435 173.949 308.922 162.945C308.408 151.942 277.341 141.193 271.025 142.212C264.709 143.23 251.323 150.7 251.323 150.7C251.323 150.7 256.12 146.605 252.077 146.859C248.034 147.114 235.905 156.335 236.418 164.261C236.931 172.187 245.478 174.734 245.478 174.734Z" fill="white" stroke="#263238" stroke-width="1.25474" stroke-linecap="round" stroke-linejoin="round"/>
    <path d="M288.685 216.455C291.21 209.293 285.648 195.722 286.15 192.655C286.653 189.589 289.188 182.161 293.734 182.161C298.28 182.161 297.526 191.371 297.023 195.212C296.543 197.921 295.6 200.525 294.237 202.905C294.237 202.905 297.211 202.364 299.568 201.993C300.144 199.69 309.383 173.64 308.89 162.977C308.388 151.973 277.31 141.224 270.994 142.243C264.678 143.262 251.292 150.732 251.292 150.732C251.292 150.732 256.089 146.636 252.046 146.89C248.003 147.145 235.874 156.366 236.387 164.292C236.9 172.219 245.479 174.786 245.479 174.786C245.479 174.786 261.651 166.605 267.475 165.831C273.298 165.056 265.715 171.465 265.202 175.052C264.689 178.638 273.581 181.418 276.828 184.517C280.075 187.615 282.128 207.298 280.117 211.903C278.106 216.508 268.491 214.206 263.945 212.413C259.399 210.619 250.045 214.206 250.045 214.206C250.045 214.206 257.629 234.43 261.159 235.194C263.096 235.619 267.37 233.963 270.847 232.393L276.085 229.825C276.085 229.825 286.15 223.628 288.685 216.455Z" fill="#263238" stroke="#263238" stroke-width="1.25474" stroke-linecap="round" stroke-linejoin="round"/>
    <path d="M256.309 197.76C256.707 199.404 256.539 200.858 255.932 201.017C255.324 201.176 254.497 199.956 254.099 198.301C253.701 196.646 253.868 195.202 254.476 195.043C255.083 194.884 255.9 196.104 256.309 197.76Z" fill="#263238"/>
    <path d="M253.806 218.758C253.806 218.758 258.854 218.758 261.64 214.662" stroke="#7D7D7D" stroke-width="1.25474" stroke-linecap="round" stroke-linejoin="round"/>
    <path d="M249.772 191.373C249.772 191.373 250.527 187.797 256.843 190.312" stroke="#263238" stroke-width="2.50947" stroke-linecap="round" stroke-linejoin="round"/>
    <path d="M304.847 211.088L287.418 245.637L296.761 257.415L312.682 219.279L304.847 211.088Z" fill="white" stroke="#263238" stroke-width="1.25474" stroke-linecap="round" stroke-linejoin="round"/>
    <path d="M325.314 242.05C325.314 242.05 317.479 240.989 314.452 243.334C311.425 245.679 296.007 282.488 296.007 282.488C300.612 283.84 304.736 286.507 307.885 290.17C312.682 296.059 316.264 306.553 316.264 306.553C316.264 306.553 336.731 281.215 340.512 275.58" fill="#86C240"/>
    <path d="M325.314 242.05C325.314 242.05 317.479 240.989 314.452 243.334C311.425 245.679 296.007 282.488 296.007 282.488C300.612 283.84 304.736 286.507 307.885 290.17C312.682 296.059 316.264 306.553 316.264 306.553C316.264 306.553 336.731 281.215 340.512 275.58" stroke="#263238" stroke-width="1.25474" stroke-linecap="round" stroke-linejoin="round"/>
    <path d="M326.717 247.27C326.717 247.27 319.92 247.843 317.647 251.864C315.374 255.886 297.798 292.62 297.798 292.62L305.13 298.934C305.13 298.934 320.433 266.21 324.968 260.469C327.94 256.916 331.883 254.332 336.302 253.042" stroke="#263238" stroke-width="1.25474" stroke-linecap="round" stroke-linejoin="round"/>
    <path d="M337.484 264.49L312.545 299.506" stroke="#263238" stroke-width="1.25474" stroke-linecap="round" stroke-linejoin="round"/>
    <path d="M292.214 280.704C292.214 280.704 285.396 285.054 285.396 289.914C285.396 294.774 291.46 305.831 298.028 311.136C304.595 316.441 310.408 314.977 313.739 312.675C317.07 310.372 325.104 309.088 325.606 299.878C326.109 290.668 313.739 277.351 308.429 275.558C303.118 273.765 292.214 280.704 292.214 280.704Z" fill="white" stroke="#263238" stroke-width="1.25474" stroke-linecap="round" stroke-linejoin="round"/>
    <path d="M181.051 311.136C181.051 311.136 178.275 313.694 175.489 315.742C172.703 317.789 169.686 319.328 172.211 320.612C174.735 321.896 177.511 320.867 180.297 320.347C183.083 319.827 186.361 319.073 186.581 317.025C186.801 314.978 186.361 308.855 181.051 311.136Z" fill="white" stroke="#263238" stroke-width="1.25474" stroke-linecap="round" stroke-linejoin="round"/>
    <path d="M309.655 310.138C309.655 310.138 313.698 302.965 309.906 295.803C306.114 288.64 298.782 285.309 294.194 285.309C289.607 285.309 212.086 307.316 212.086 307.316C212.086 307.316 188.592 300.663 185.806 301.692C183.02 302.721 166.355 311.921 162.563 313.714C158.772 315.507 158.772 317.81 160.542 318.064C162.312 318.319 166.826 316.791 169.131 316.016C171.435 315.242 178.987 312.441 178.987 312.441C178.352 314.277 177.844 316.156 177.468 318.064C177.468 319.125 184.549 322.935 185.848 322.935C187.147 322.935 191.41 323.699 194.437 322.68C197.464 321.661 193.18 317.3 193.18 317.3L198.48 314.998C198.48 314.998 203.79 317.81 208.336 317.555C210.796 317.499 213.211 316.887 215.406 315.762C215.406 315.762 297.525 313.459 309.655 310.138Z" fill="white" stroke="#263238" stroke-width="1.25474" stroke-linecap="round" stroke-linejoin="round"/>
    <path d="M183.627 310.139C183.627 310.139 180.349 316.505 181.103 317.81C181.857 319.115 188.435 322.681 188.435 322.681" stroke="#263238" stroke-width="1.25474" stroke-linecap="round" stroke-linejoin="round"/>
    <path d="M188.864 310.395C188.864 310.395 185.575 316.761 186.591 318.066C187.607 319.371 194.416 322.682 194.416 322.682" stroke="#263238" stroke-width="1.25474" stroke-linecap="round" stroke-linejoin="round"/>
    <path d="M179.029 312.441L179.532 310.139" stroke="#263238" stroke-width="1.25474" stroke-linecap="round" stroke-linejoin="round"/>
    <path d="M173.434 351.107H88.7804L56.4775 368.785H145.164L173.434 351.107Z" fill="white" stroke="#263238" stroke-width="1.25474" stroke-linecap="round" stroke-linejoin="round"/>
    <path d="M94.3223 355.736H156.823" stroke="#263238" stroke-width="1.25474" stroke-linecap="round" stroke-linejoin="round"/>
    <path d="M89.7656 359.025H152.266" stroke="#263238" stroke-width="1.25474" stroke-linecap="round" stroke-linejoin="round"/>
    <path d="M85.1982 362.324H147.709" stroke="#263238" stroke-width="1.25474" stroke-linecap="round" stroke-linejoin="round"/>
    <path d="M157.147 355.736L139.246 364.639" stroke="#263238" stroke-width="1.25474" stroke-linecap="round" stroke-linejoin="round"/>
    <path d="M147.385 355.736L129.484 364.639" stroke="#263238" stroke-width="1.25474" stroke-linecap="round" stroke-linejoin="round"/>
    <path d="M41.332 307.105H130.029L145.164 368.786H56.4779L41.332 307.105Z" fill="#263238" stroke="#263238" stroke-width="1.25474" stroke-linecap="round" stroke-linejoin="round"/>
    <path d="M56.4683 373.168H145.165V368.786H56.4683V373.168Z" fill="white" stroke="#263238" stroke-width="1.25474" stroke-linecap="round" stroke-linejoin="round"/>
    <path d="M40.3477 307.105H129.044L144.19 368.786H55.4936L40.3477 307.105Z" fill="white" stroke="#263238" stroke-width="1.25474" stroke-linecap="round" stroke-linejoin="round"/>
    <path d="M145.165 368.785L173.435 351.107V354.736L145.165 373.167V368.785Z" fill="#263238" stroke="#263238" stroke-width="1.25474" stroke-linecap="round" stroke-linejoin="round"/>
    <path d="M96.1241 336.074C96.2637 336.994 96.1368 337.935 95.7587 338.783C95.3805 339.632 94.7675 340.35 93.9939 340.852C93.2204 341.354 92.3196 341.618 91.4009 341.612C90.4822 341.605 89.5852 341.328 88.8187 340.815C88.0522 340.302 87.4492 339.575 87.0829 338.721C86.7166 337.868 86.6028 336.925 86.7552 336.007C86.9077 335.089 87.3199 334.236 87.9417 333.551C88.5636 332.866 89.3684 332.379 90.2584 332.148C91.5498 331.885 92.8915 332.15 93.9906 332.886C95.0896 333.621 95.8566 334.768 96.1241 336.074Z" stroke="#263238" stroke-width="1.25474" stroke-linecap="round" stroke-linejoin="round"/>
    </svg>
    